<?xml version="1.0" encoding="utf-8"?>
<!-- Generator: Adobe Illustrator 23.0.6, SVG Export Plug-In . SVG Version: 6.00 Build 0)  -->
<svg version="1.1" id="Layer_1" xmlns="http://www.w3.org/2000/svg" xmlns:xlink="http://www.w3.org/1999/xlink" x="0px" y="0px"
	 viewBox="0 0 1111 1029.8" style="enable-background:new 0 0 1111 1029.8;" xml:space="preserve">
<style type="text/css">
	.st0{fill:#4A616F;}
	.st1{fill:none;stroke:#FFFFFF;stroke-miterlimit:10;}
	.st2{fill:#F3C8BC;}
	.st3{fill:#EA5424;}
	.st4{fill:#DB7C72;}
	.st5{fill:#CA4116;}
	.st6{fill:#ED9689;}
	.st7{fill:#EE9B91;}
	.st8{fill:#CB746A;}
	.st9{fill:none;stroke:#3D505C;stroke-width:1.15;stroke-linecap:round;stroke-linejoin:round;}
	.st10{fill:none;stroke:#FFFFFF;stroke-linecap:round;stroke-linejoin:round;}
	.st11{fill:none;stroke:#B0655C;stroke-width:1.03;stroke-linecap:round;stroke-linejoin:round;}
	.st12{fill:#FFFFFF;}
	.st13{fill:#33434D;}
	.st14{fill:#585C69;}
	.st15{fill:none;stroke:#3D505C;stroke-width:0.76;stroke-linecap:round;stroke-linejoin:round;}
	.st16{fill:none;stroke:#33434D;stroke-width:0.76;stroke-linecap:round;stroke-linejoin:round;}
	.st17{fill:none;stroke:#FFFFFF;stroke-width:0.83;stroke-miterlimit:10;}
	.st18{fill:none;stroke:#B0655C;stroke-width:0.87;stroke-linecap:round;stroke-linejoin:round;}
	.st19{fill:none;}
</style>
<g transform="translate(-0.001 0.001)">
	<g transform="translate(0.001 -0.001)">
		<path class="st0" d="M564.2,402.6c0,0,6.4,153.3,123.5,327.7l13.4-5.7C701.1,724.6,578.2,552.8,564.2,402.6z"/>
		<path class="st0" d="M570,335.1c-13.4-13.7-35.5-11-42.5,7.9c-9.4,25.6,10.9,54.6,32.1,66.6c5.7,3.3,16.8-18.9,18.6-22.5
			c7.6-14.5,4.8-34-4.2-47.2C572.8,338.3,571.5,336.6,570,335.1L570,335.1z"/>
		<path class="st0" d="M492.1,398.9c-18.5,5.1-26.9,25.7-13.8,41c17.7,20.7,53,17.1,73.8,4.5c5.7-3.4-8.4-23.9-10.5-27.3
			c-8.9-13.7-27.3-20.8-43.3-19.3C496.3,397.9,494.2,398.3,492.1,398.9L492.1,398.9z"/>
		<path class="st0" d="M494.5,474.5c-16.3,10.2-18.3,32.4-1.3,43.2c23,14.7,55.7,1,72-17.1c4.4-4.9-14.9-20.5-18-23.1
			c-12.6-10.5-32.1-12-47-6C498.2,472.4,496.3,473.4,494.5,474.5z"/>
		<path class="st0" d="M510.7,544c-12.5,14.7-7.7,36.4,11.7,41.6c26.3,7,53.4-15.8,63.5-38c2.7-6-20.4-15-24.1-16.5
			c-15.1-6.3-34.2-1.7-46.6,8.4C513.6,540.8,512,542.3,510.7,544z"/>
		<path class="st0" d="M531.8,612.6c-8,17.5,2.4,37.1,22.5,36.9c27.3-0.3,47.2-29.6,50.9-53.6c1-6.5-23.7-9-27.6-9.5
			c-16.3-2-33.5,7.6-42.6,20.7C533.7,608.8,532.7,610.6,531.8,612.6z"/>
		<path class="st0" d="M647.6,445c18.5,5,26.9,25.6,13.8,40.9c-17.7,20.7-53,17.2-73.8,4.6c-5.6-3.4,8.4-23.9,10.5-27.3
			c8.9-13.8,27.3-20.8,43.2-19.4C643.4,444.1,645.5,444.5,647.6,445z"/>
		<path class="st0" d="M671.6,505.7c18,6.8,24.3,28.1,9.8,42c-19.7,18.9-54.4,11.9-73.9-2.6c-5.3-3.9,10.6-23,13.1-26.1
			c10.2-12.8,29.1-18,44.9-14.9C667.6,504.4,669.6,505,671.6,505.7z"/>
		<path class="st0" d="M700.8,570.3c15.5,11.4,15.8,33.6-1.9,43.2c-24,12.9-55.6-3.2-70.5-22.4c-4.1-5.2,16.4-19.3,19.6-21.6
			c13.3-9.6,32.9-9.5,47.3-2.4C697.3,568,699.1,569.1,700.8,570.3L700.8,570.3z"/>
		<path class="st0" d="M648.2,411.9c5.9-18.3-6.7-36.6-26.7-34c-27,3.5-43.4,34.9-44.3,59.2c-0.3,6.6,24.6,6.2,28.5,6.2
			c16.4,0,32.3-11.4,39.9-25.6C646.7,415.9,647.6,414,648.2,411.9L648.2,411.9z"/>
		<path class="st1" d="M541.2,426.4c0,0,6.3,153.3,123.5,327.7l13.4-5.7C678.1,748.3,555.1,576.5,541.2,426.4z"/>
		<path class="st1" d="M546.9,359.5c-13.4-13.7-35.5-10.9-42.5,8c-9.4,25.6,11,54.6,32.1,66.6c5.7,3.3,16.8-18.9,18.6-22.5
			c7.6-14.5,4.8-33.9-4.2-47.2C549.8,362.7,548.5,361.1,546.9,359.5z"/>
		<path class="st1" d="M469,423.3c-18.5,5.1-26.9,25.7-13.8,41c17.7,20.7,53,17.1,73.8,4.5c5.7-3.4-8.4-23.9-10.5-27.3
			c-8.9-13.7-27.3-20.8-43.3-19.3C473.2,422.4,471.1,422.8,469,423.3z"/>
		<path class="st1" d="M471.5,499c-16.3,10.2-18.3,32.4-1.3,43.2c23,14.7,55.7,1,72-17.1c4.4-4.9-14.9-20.5-18-23.1
			c-12.6-10.5-32.1-12-47-6C475.2,496.8,473.3,497.8,471.5,499L471.5,499z"/>
		<path class="st1" d="M487.6,568.4c-12.5,14.7-7.7,36.4,11.7,41.6c26.3,7,53.4-15.8,63.5-38c2.7-6-20.4-15-24-16.6
			c-15.1-6.3-34.3-1.7-46.6,8.4C490.5,565.2,489,566.7,487.6,568.4L487.6,568.4z"/>
		<path class="st1" d="M508.8,637c-8.1,17.4,2.4,37.1,22.5,36.9c27.3-0.3,47.2-29.6,50.9-53.6c1-6.5-23.7-9-27.6-9.5
			c-16.3-2-33.5,7.6-42.6,20.7C510.7,633.2,509.6,635,508.8,637L508.8,637z"/>
		<path class="st1" d="M624.5,469.5c18.5,5,26.9,25.6,13.8,40.9c-17.7,20.7-53,17.2-73.8,4.6c-5.6-3.4,8.4-23.9,10.5-27.3
			c8.9-13.8,27.3-20.8,43.2-19.4C620.3,468.6,622.4,468.9,624.5,469.5z"/>
		<path class="st1" d="M648.6,530.2c18,6.8,24.3,28.1,9.8,42c-19.7,18.9-54.4,11.9-73.9-2.6c-5.3-3.9,10.6-23.1,13.1-26.1
			c10.2-12.8,29.2-18,44.9-15.1C644.6,528.8,646.6,529.4,648.6,530.2z"/>
		<path class="st1" d="M677.8,594.8c15.5,11.4,15.8,33.6-1.9,43.2c-24,12.9-55.6-3.2-70.5-22.4c-4.1-5.2,16.4-19.3,19.6-21.6
			c13.3-9.6,33-9.5,47.3-2.4C674.3,592.4,676.1,593.5,677.8,594.8z"/>
		<path class="st1" d="M625.2,436.3c5.9-18.3-6.7-36.6-26.7-34c-27,3.5-43.4,34.9-44.3,59.2c-0.3,6.6,24.6,6.1,28.5,6.2
			c16.4,0,32.3-11.4,39.9-25.5C623.7,440.3,624.6,438.3,625.2,436.3L625.2,436.3z"/>
		<path class="st2" d="M892.5,469.2c0,0-45.9-34.1-31.5-84c0,0,36.7-69.5,31.5-131.2c0,0-57.7,56.4-51.1,132.5
			c0,0-39.4-72.1-9.2-101c0,0,53.5-26.2,60.9-99.7c0,0-77.9,68.2-83.2,123.3c0,0,0-52.5,23.6-86.6c0,0,28.1-28.9,18-65.6
			c0,0-57.3,24.9-49.4,129.8c0,0-15.7-31.5,7.9-95.8c0,0,18.4-94.5-22.3-125.9c0,0-36.7,71.6,0,174.5c0,0-36.7-74.8-65.6-64.3
			c0,0,22.6,59.1,61.6,77.4c0,0,11.8,39.4,14.4,59c0,0-32.8-59-76.1-66.9c0,0,20.1,54.3,85.5,84c0,0,22.3,82.2,48.3,106.2
			c0,0-35.4-2.6-61.7-49.8c0,0-36.7-82.2-65.6-89c0,0,6.6,65.4,69.5,113.9c0,0-90.5-32.8-105-98.4c0,0,10.5-68.2-19.7-93.1
			c0,0-39.3,55.1,23.6,137.7c0,0-17.1,6.6-51.1-22.3c0,0-69.5-74.3-126-37.8c0,0,24.9,68,154.8,65.4c0,0,49.1,10.5,31.7,17.1
			c0,0-33,10.5-54,6.6c0,0-95.8-2.6-93.1,21c0,0,27.5,21,124.6-13.1c0,0,52.5-6.6,77.4,9.2c0,0-152.2,14.4-154.8,66.9
			c0,0,20.5,3.8,99.9-48.5c0,0,75.8-24.9,117.8,17.1c0,0-139-10.5-188.9,48.5c0,0,51.2,19.7,145.6-32.8c0,0,53.8-19.7,74.8-1.3
			c0,0-195.4,60.3-186.3,132.5c0,0,123.6,14.6,166.6-114.1c0,0,28.9-13.1,47.2,5.3L892.5,469.2z"/>
		<path class="st1" d="M918.1,482.5c0,0-45.9-34.1-31.5-84c0,0,36.7-69.5,31.5-131.2c0,0-57.7,56.4-51.1,132.5
			c0,0-39.4-72.1-9.2-101c0,0,53.5-26.2,60.9-99.7c0,0-77.9,68.2-83.2,123.3c0,0,0-52.5,23.6-86.6c0,0,28.1-28.9,18-65.6
			c0,0-57.3,24.9-49.4,129.8c0,0-15.7-31.5,7.9-95.7c0,0,18.4-94.5-22.3-126c0,0-36.7,71.6,0,174.5c0,0-36.7-74.8-65.6-64.3
			c0,0,22.6,59.1,61.6,77.4c0,0,11.8,39.3,14.4,59c0,0-32.8-59-76.1-66.9c0,0,20.1,54.3,85.5,84c0,0,22.3,82.2,48.3,106.2
			c0,0-35.4-2.6-61.7-49.8c0,0-36.7-82.2-65.6-89c0,0,6.6,65.4,69.5,113.9c0,0-90.5-32.8-105-98.4c0,0,10.5-68.2-19.7-93.1
			c0,0-39.3,55.1,23.6,137.7c0,0-17.1,6.6-51.1-22.3c0,0-69.5-74.3-126-37.8c0,0,24.9,68,154.8,65.4c0,0,49,10.5,31.7,17.1
			c0,0-33.1,10.5-54,6.6c0,0-95.8-2.6-93.1,21c0,0,27.6,21,124.6-13.1c0,0,52.5-6.6,77.4,9.2c0,0-152.2,14.4-154.8,66.9
			c0,0,20.5,3.8,100-48.5c0,0,75.8-24.9,117.8,17.1c0,0-139-10.5-188.9,48.5c0,0,51.2,19.7,145.6-32.8c0,0,53.8-19.7,74.8-1.3
			c0,0-195.4,60.3-186.3,132.5c0,0,123.6,14.6,166.6-114.1c0,0,28.9-13.1,47.2,5.3L918.1,482.5z"/>
		<path class="st3" d="M415.7,643.9c0,0-4.8-38.8,26.7-55.2c0,0,51.7-14.7,79.7-46.3c0,0-55.1-1.9-89.6,37.2
			c0,0,17.1-53.5,45.6-52.2c0,0,38.2,14.1,78-16.9c0,0-70.5-6.3-100.2,17.1c0,0,25.9-24.8,54-29.2c0,0,27.5,0.3,40.9-22.1
			c0,0-39.4-16.6-87.5,36.8c0,0,8.1-22.6,51.1-41.3c0,0,55.4-35.5,51.8-70.4c0,0-52.7,15.6-86.3,82.3c0,0,19.6-53.4,0.8-62.8
			c0,0-18.5,39.1-9.2,67c0,0-13.9,24.4-22.4,35c0,0,13.7-44.1-2.8-69.2c0,0-17.3,35.5-1.2,81.9c0,0-30.1,49.8-29.8,74
			c0,0-15.4-18.8-4.5-54c0,0,23.3-56.9,13.1-74.4c0,0-29.2,34.1-23.5,88.2c0,0-26.5-60.2-0.9-98.3c0,0,38.7-27,36.8-53.7
			c0,0-45.8,6.5-57,76.7c0,0-11.3-5.4-13.1-35.8c0,0,4-69.4-40.7-80.1c0,0-21.8,44.4,40.7,107.4c0,0,18,29.2,6.6,23.8
			c0,0-20.8-11.4-28.8-23.6c0,0-43.9-48.6-54.3-36.1c0,0,2.6,23.5,65.3,55.4c0,0,28,22.9,32,42.6c0,0-78.9-68.4-106.1-45
			c0,0,7.8,12,71.1,26.5c0,0,48.1,25.8,47.2,66.3c0,0-60.4-73.7-113.1-70.5c0,0,14.4,34.6,84.9,56.5c0,0,35.1,17.3,35.9,36.4
			c0,0-122-68.2-153.3-29.6c0,0,51.1,68,135,28.5c0,0,20.1,8.1,19.7,25.8L415.7,643.9z"/>
		<path class="st4" d="M790.3,952.3c0,0,33.9-14.7,106.3-26c0,0,67.9-6.8,71.3-41.9c0,0-80.3-46.4-173.1,46.4
			c0,0,14.7-62.2,98.4-70.2c0,0,117.6-10.2,91.6-50.9c0,0,2.3,2.3-30.6,14.7c0,0-35.1,14.7-60,11.3c0,0-58.8-2.3-83.7,48.6
			c0,0-13.6-40.7,109.7-70.2c0,0,99.6-39.6,88.2-100.7c0,0-37.3,22.6-98.4,71.3c0,0-76.9,40.7-101.8,74.7
			c23.4-28.9,51.8-53.4,83.7-72.4c0,0,90.5-70.1,81.5-127.9c0,0-19.2,0-63.3,69c0,0-27.2,53.2-56.6,64.5c0,0,105.2-133.5,50.9-219.5
			c0,0-28.3-12.5-26,28.3c0,0,5.7,146-35.1,190.1c0,0,24.9-185.5-40.7-207.1c0,0-10.2-3.4,0,38.5c0,0,31.5,134.3,26.1,166.8
			c0,0-19.4,8.7-32.4-118.9c0,0-10.8-60.5-32.4-27c0,0-18.4,107,18.4,141.6c0,0-7.6,11.9-22.7,1.1l-5.9-6.3
			c-26.8-54.5,7.5-189.4,7.5-189.4c10.7-39.4-19.5-33.1-19.5-33.1c-71,72.8,3.9,225.3,3.9,225.3c-26.4-17.2-41.8-74.9-41.8-74.9
			c-28.7-76.7-47.5-80.7-47.5-80.7c-21,54.6,52.9,142.1,52.9,142.1c27.3,25.3,49.9,55.2,66.7,88.3c-17.2-38.4-84-94.3-84-94.3
			c-49.6-60.4-81.3-90.3-81.3-90.3c-23.8,57.4,65.3,117,65.3,117c114.4,54.6,92.6,91.6,92.6,91.6c-13.7-55-71.7-65.1-71.7-65.1
			c-25-1.9-56.3-23.6-56.3-23.6c-29.4-19-26.8-20.8-26.8-20.8c-34,34.4,79,69,79,69c80.2,25.2,81.6,89.2,81.6,89.2
			c-71.3-110.1-159.6-81.6-159.6-81.6c-4,35,60.9,55.8,60.9,55.8c68.5,26.2,98.6,47.7,98.6,47.7"/>
		<path class="st3" d="M808.6,496.2c0,0,42,111.1,136.5,137.8C945.1,634,919.1,540,808.6,496.2z"/>
		<path class="st5" d="M834.2,520.2c0,0,34.1,90.1,110.6,111.8C944.8,632,923.8,555.7,834.2,520.2z"/>
		<path class="st3" d="M851.9,650.4c0,0,51.6,106.4,154.5,112.9C1006.4,763.4,960.9,664.1,851.9,650.4z"/>
		<path class="st5" d="M882.9,672.2c0,0,40.7,84,121.8,89.1C1004.8,761.2,968.9,682.9,882.9,672.2z"/>
		<path class="st3" d="M1045.5,426c0,0-75.3,50.5-93.8,167.7C951.7,593.8,1044.7,539,1045.5,426z"/>
		<path class="st5" d="M1023.5,464c0,0-57.5,38.6-71.7,128.1C951.8,592.2,1022.9,550.3,1023.5,464z"/>
		<path class="st3" d="M1087.2,549.9c0,0-89.7,87.8-87.5,185.4C999.8,735.3,1080.7,692.7,1087.2,549.9z"/>
		<path class="st5" d="M1066,593.5c0,0-67.4,66-65.8,139.4C1000.2,732.8,1061.1,700.8,1066,593.5z"/>
		<path class="st3" d="M931.4,520c0,0,12,152.5,154.3,364.6l16.3,7.7c0,0-113.7-146.1-167.4-379.2L931.4,520z"/>
		<path class="st3" d="M869.1,367.9c0,0-28.9,128.1,67.3,197.6C936.5,565.5,977.5,465.3,869.1,367.9z"/>
		<path class="st5" d="M882.8,406.3c0,0-23.1,101.9,53.6,157.2C936.3,563.6,968.9,483.8,882.8,406.3z"/>
		<path class="st6" d="M537.4,214.9c-0.4-0.8-0.7-1.5-1-2.4c-1.4-5.2-0.7-10.8,2-15.5c5.1-9.8,15.2-16.2,25.6-20.1
			c27.9-10.5,72.4-13,101.4-5.7c6.1,1.2,11.9,3.6,17.1,7c3.3,2.4,6.9,10,9.7,11.4c0,0-26.4-13-31.2,2.1
			c-13.8,43.3-56.1,60.2-98.4,44.4c-8.6-3.4-16.1-9-21.8-16.2C539.5,218.3,538.3,216.6,537.4,214.9z"/>
		<path class="st7" d="M587.1,167.5c0,0,42.1-102.9-21.4-106.5c0,0,18.9,12.6,6.3,24.7c0,0-90.2,38.2-35.6,123.6
			C536.4,209.3,530.4,179.7,587.1,167.5z"/>
		<path class="st8" d="M612.3,132.3c0,0,19.3-44.1,59.6-14.9c0,0,24.2,30.5,1.9,33.6c0,0-21.6,3.3-8.4,17.1c0,0-40.6-7.1-67.8-2.1
			L612.3,132.3z"/>
		<path class="st4" d="M594.6,76.9c0,0,27.7-17.1,44.9,7.6c0,0,24.7,5.2,23.8,27.5c0,0-36.4-13.3-51,20.2l-14.7,33.6l-10.5,1.7
			C587.1,167.5,612.6,104,594.6,76.9z"/>
		<path class="st4" d="M526.9,178.6c0,0-24,7.7-33.1-1.6c0,0,23.9,18.8,35.4,22.3c0,0,2.7,35.1,13.9,41.9c0,0-6.3-27.7,2.1-27.1
			c0,0,1.9,20.8,11,20.3c0,0-15.4-24.7-1.1-18.9C555.1,215.6,534,201.8,526.9,178.6z"/>
		<path class="st4" d="M529.2,194.5c0,0-256.9,135.1-316.4,231.7l2.6,4.9c0,0,57.1-94.4,314.7-228.8L529.2,194.5z"/>
		<path class="st5" d="M423.3,302.6c-8.4-11.3-11.5-34.2-11.7-47.5c-0.2-10,1.6-21,10.5-27.1c17.2-11.6,35.7,10,40.9,24.8
			c6.3,18.5,2.5,39.4-3.3,57.5c1.5-4.7,27.7-4.5,31.2-4.2c14.5,0.8,50.9,9.3,40.6,29.5c-12,23.5-42.7,16.2-62.2,8.1
			c0,0,40.2,67.9-0.1,73.7c0,0-29.7,8.2-44-60.9c0,0-59.4,32-65.3-2.8c0,0,4.2-34.9,46.5-29.2c0,0-67.2-9.9-40.5-45.6
			C365.8,279.1,393.9,262.7,423.3,302.6z"/>
		<path class="st4" d="M435.9,309.7c0,0-17.3-30.1,6.2-28.8c0,0,18.7,7.3,4,31c0,0,27.1-4.2,35.7,7.7c0,0,3,15.2-30.5,5.8
			c0,0,20.4,31.2,4.7,36.8c0,0-23.3,0.7-14-30.9c0,0-22.3,23.1-29,7.2c0,0-11.5-13.4,21-19.9c0,0-34,12.1-27.3-8.7
			C406.8,309.8,412.9,297,435.9,309.7z"/>
		<path class="st9" d="M444.2,321.6c0,0,19.8-17.2,16.1-41.5"/>
		<path class="st9" d="M484.9,315.6c0,0-21.6-9.9-40.3,4.4"/>
		<path class="st9" d="M481.4,331c0,0-10.9-16.8-36.7-11.2"/>
		<path class="st0" d="M379.7,164.3c0,0-107.8,87.2-51,182C328.7,346.4,413.4,253.1,379.7,164.3z"/>
		<path class="st5" d="M425.2,334.6H425l-0.5,0.3l-0.8,0.5l-1.1,0.7l-1.4,0.9l-1.6,1.1l-1.9,1.2l-2.1,1.5l-2.4,1.7l-2.6,1.8
			l-2.9,2.1l-3.1,2.3c-1.1,0.8-2.2,1.6-3.3,2.5s-2.4,1.8-3.5,2.7c-1.2,0.9-2.5,1.9-3.7,2.9l-3.9,3.1l-4.2,3.3l-4.2,3.5l-4.5,3.8
			c-1.6,1.3-3.1,2.6-4.6,3.9l-4.8,4.2l-4.9,4.4c-1.7,1.5-3.4,3.1-5,4.6l-5.2,4.9c-1.8,1.7-3.5,3.4-5.3,5.1s-3.6,3.5-5.4,5.3
			c-1.8,1.8-3.7,3.7-5.5,5.5c-1.8,1.8-3.7,3.8-5.6,5.8c-1.8,1.9-3.8,4-5.7,6c-1.9,2-3.8,4.2-5.7,6.3s-3.9,4.2-5.8,6.4
			s-3.9,4.5-5.8,6.7s-3.9,4.6-5.9,6.9s-4,4.8-5.9,7.2s-4,4.9-5.9,7.4s-4,5.1-6,7.6s-4,5.3-6,7.9s-4,5.4-6,8.1s-4,5.6-6,8.4
			s-4,5.7-6,8.6s-4,5.9-5.9,8.9c-2,3-3.9,5.9-6,9c-2.1,3.1-3.9,6.3-5.9,9.4c-1.9,3.1-3.9,6.4-5.8,9.6s-3.9,6.6-5.8,9.9
			c-1.9,3.3-3.8,6.8-5.7,10.2s-3.8,6.9-5.6,10.4s-3.7,7.1-5.6,10.7s-3.7,7.3-5.4,10.9c-1.8,3.7-3.6,7.5-5.4,11.2s-3.5,7.6-5.3,11.5
			c-1.7,3.8-3.4,7.8-5.1,11.7c-1.7,3.9-3.4,8-5,12c-1.6,4-3.3,8.1-4.9,12.2s-3.2,8.4-4.7,12.6c-1.6,4.2-3.1,8.5-4.6,12.8
			s-3,8.7-4.4,13.1c-1.4,4.4-2.9,8.9-4.2,13.4c-1.3,4.5-2.8,9.1-4.2,13.6c-1.4,4.6-2.6,9.2-3.9,13.9c-1.3,4.7-2.5,9.4-3.7,14.2
			c-0.8,3.2-1.6,6.4-2.3,9.6c1.2,0.3,2.4,0.7,3.6,1.1l0.3-1.3l1.2-4c0.8-2.7,1.6-5.4,2.4-8.1c0.8-2.7,1.7-5.6,2.5-8.4
			c0.9-2.8,1.8-5.7,2.7-8.6s1.9-5.9,2.9-8.8c1-2.9,2.1-6,3.1-9c1-3,2.1-6.2,3.3-9.2c1.2-3.1,2.3-6.3,3.5-9.4s2.4-6.3,3.7-9.6
			c1.2-3.3,2.6-6.5,3.9-9.7c1.3-3.2,2.7-6.6,4.1-9.9c1.4-3.3,2.8-6.7,4.2-10c1.4-3.3,3-6.8,4.5-10.2c1.5-3.4,3.1-6.9,4.7-10.3
			c1.6-3.4,3.3-7,4.9-10.5c1.7-3.5,3.4-7,5.2-10.5s3.6-7.1,5.4-10.6c1.8-3.5,3.7-7.2,5.6-10.7s3.9-7.2,5.9-10.8s4.1-7.3,6.1-10.9
			c2.1-3.6,4.2-7.3,6.3-10.9c2.1-3.6,4.4-7.3,6.7-11c2.2-3.7,4.6-7.4,6.9-11c2.3-3.7,4.8-7.4,7.2-11.1c2.4-3.7,4.9-7.4,7.5-11.1
			s5.1-7.4,7.8-11.1s5.3-7.4,8-11.1c2.7-3.7,5.5-7.4,8.4-11.1c2.9-3.7,5.7-7.4,8.6-11.1c2.9-3.7,5.9-7.4,8.9-11
			c3-3.7,6.1-7.4,9.2-11s6.3-7.4,9.5-11c3.2-3.6,6.5-7.3,9.8-10.9s6.7-7.3,10.1-10.9c3.4-3.6,7-7.2,10.5-10.8
			c3.5-3.6,7.2-7.1,10.8-10.7s7.4-7.1,11.1-10.6s7.6-7,11.4-10.5c3.8-3.5,7.8-7,11.8-10.4c3.9-3.4,8-6.9,12.1-10.2
			c3.6-2.9,7.2-5.9,10.8-8.8C432.3,333.3,427.6,335.1,425.2,334.6z"/>
		<path class="st0" d="M330,323.7c0,0,78.4-14.5,133.6,27.3C463.6,351,386.6,395.7,330,323.7z"/>
		<path class="st7" d="M774.3,334.5c8.8,8.5,28.4,13.9,39.9,15.6c8.6,1.3,18.5,1,24.7-6c12-13.6-4.7-32.2-17-38.4
			c-15.3-7.7-34-6.6-50.4-3.7c4.2-0.8,7-23.6,7.2-26.7c1-12.7-2.3-45.3-21-38.6c-21.8,7.7-18.9,35.3-14.1,53.1
			c0,0-54.4-42.7-64.1-8.3c0,0-10.5,24.9,47.9,45.1c0,0-34.6,48-5,57.1c0,0,30.8,0.4,30.6-37.1c0,0,1,59.5,35,40.4
			C788.3,387.1,805.6,364.6,774.3,334.5z"/>
		<path class="st4" d="M767.6,320.8c0,0,24.2,18.4,25.8-2.1c0,0-4.2-17.1-26.5-7c0,0,6.8-23.1-2.6-31.9c0,0-12.9-4.2-8.4,25.9
			c0,0-24.8-21.3-31.5-8.2c0,0-3.3,20.2,25.3,15.7c0,0-22.7,16.8-9.6,24.4c0,0,10.3,11.5,19.7-16c0,0-14.3,28.1,4.5,24.6
			C764.3,346.1,776.1,342.2,767.6,320.8z"/>
		<path class="st10" d="M759,311.9c0,0,17.2-15.3,37.8-9.3"/>
		<path class="st10" d="M767.4,278.2c0,0,6.1,19.9-8.4,34.5"/>
		<path class="st10" d="M753.1,279.4c0,0,13.4,11.4,5.6,33.2"/>
		<path class="st7" d="M469.2,674c0,0,29.4,150.7-43.7,347.4l-14.4-2.4C411.1,1019,490.5,823.3,469.2,674z"/>
		<path class="st7" d="M553.6,809.9c15.5,11.3,16,33.6-1.7,43.2c-23.9,13-55.6-2.9-70.6-22.1c-4.1-5.2,16.3-19.4,19.5-21.7
			c13.3-9.7,32.9-9.7,47.3-2.6C550.1,807.5,551.9,808.6,553.6,809.9L553.6,809.9z"/>
		<path class="st7" d="M550.2,873.1c11.9,15.1,6.3,36.7-13.3,41.1c-26.6,6-52.8-17.8-62-40.3c-2.5-6.1,21-14.2,24.7-15.6
			c15.4-5.7,34.3-0.4,46.2,10.2C547.4,869.9,548.9,871.4,550.2,873.1z"/>
		<path class="st7" d="M387.7,808.3c-15.9,10.8-17.1,33,0.3,43.2c23.5,13.8,55.7-1.1,71.3-19.8c4.2-5.1-15.7-19.9-18.9-22.3
			c-12.9-10.1-32.6-10.7-47.2-4.2C391.3,806,389.4,807.1,387.7,808.3L387.7,808.3z"/>
		<path class="st7" d="M375.5,869.2c-12.4,14.7-7.6,36.4,11.9,41.5c26.4,6.9,53.3-16,63.3-38.2c2.7-6-20.5-14.9-24.1-16.4
			c-15.2-6.3-34.3-1.6-46.6,8.7C378.3,866.1,376.8,867.6,375.5,869.2L375.5,869.2z"/>
		<path class="st4" d="M592.2,641.7c0,0-10.5-9.2-30.2-7.4c0,0-16.8,2.2-25-17.2c0,0-10.9-24.3-39.9-8.9c0,0-30,1.3-40.3,13.9
			c0,0-37.1,0.4-46.2,9.4c0,0-40.5-3.5-51,14c0,0-41,19.5-19.7,51c0,0,16.7-17.2,44.5-0.1c0,0-22.4,40.5-6.7,42
			c0,0,20.2,30.2,42.6,25.8l36.7,7.7c0,0,10.9-25.7,35.1-9.1l48.6-17.3c0,0,2.1-34.3,23.9-50.1c7.7-7.1,14.6-14.9,20.5-23.5
			C585.1,671.9,578.2,646.4,592.2,641.7z"/>
		<path class="st11" d="M497.1,612.1c3.9,35.1,21,67.4,47.8,90.3"/>
		<path class="st11" d="M456.8,625.1c0,0,20.7,41.3,80.1,87"/>
		<path class="st11" d="M410.5,635.4c0,0,13,35.2,56,54.6"/>
		<path class="st11" d="M359.6,648.3c0,0,33.6,39.8,82.6,55"/>
		<path class="st7" d="M535.1,749.7c0,0-15.6-33.7,22.1-66.1c6.6-7.2,12.1-15.2,16.4-24c0,0,16.8-33.1,23.5-9.3
			C597.2,650.3,602.7,731.6,535.1,749.7z"/>
		<path class="st7" d="M458.4,769.9c0,0-58.3-40.1-26.8-65.9c0,0,21-8.3,34.9-19.6c0,0,22.9-12.3,46.2,6.3l24.2,16.6
			c0,0-12.9,24.9-1.8,40.1C535.1,747.4,492.7,778,458.4,769.9z"/>
		<path class="st7" d="M339.9,694.5c0,0,22-18.6,44.5-0.1c0,0,35.5,24.2,38.3,20.2c0,0-8.8,30.7,35.7,55.2
			C458.4,769.8,344.3,781.9,339.9,694.5z"/>
		<circle class="st12" cx="527.7" cy="683.8" r="4.7"/>
		<circle class="st12" cx="515.4" cy="684.5" r="4.7"/>
		<circle class="st12" cx="461.1" cy="669.3" r="4.7"/>
		<circle class="st12" cx="453.1" cy="683.7" r="4.7"/>
		<circle class="st12" cx="440.5" cy="693.6" r="4.7"/>
		<circle class="st12" cx="425.5" cy="693.8" r="4.7"/>
		<circle class="st12" cx="432.3" cy="681" r="4.7"/>
		<circle class="st12" cx="446.2" cy="675.3" r="4.7"/>
		<circle class="st12" cx="470.5" cy="677.8" r="4.7"/>
		<circle class="st12" cx="483.1" cy="667.9" r="4.7"/>
		<circle class="st12" cx="513.8" cy="668.9" r="4.7"/>
		<circle class="st12" cx="496.9" cy="680" r="4.7"/>
		<circle class="st12" cx="499.3" cy="663.7" r="4.7"/>
		<path class="st13" d="M787.2,509.8c0,0,70.1-41.1,123.3-0.7c0,0,56.2,38.3,17.2,69.6C927.8,578.7,805.7,591.5,787.2,509.8z"/>
		<path class="st14" d="M761.1,464.4c0,0-2.7-21.9,27.3-24.7c0,0,13.1,0.8,22.2-4.7c0,0,23.1-0.1,25.7,32.2c0,0,48.1-50.8,83.3,8
			c0,0,48-19.6,58.7,12.6c0,0,3.5,20.4,11.6,26.1c0,0,27.1,14.7,5.9,50.5c0,0-58.1-11.4-78.9-3.4c0,0-3-64.5-81.7-62.3
			c0,0-21,2.3-31,13.6C804.2,512.5,781.3,468.3,761.1,464.4z"/>
		<path class="st0" d="M779,653.7c0,0-88.8-52.2-69.8-158.7c0,0,14.2-50.3,52.5-39.4c0,0,23.2,11.9,42.6,50.7
			c0,0,38.2,13.2,39.3,28.9c0,0,31.4-2.2,39.3,18.5c0,0,22.7-8.8,34,1.2c0.5,0.4,5.8-1.1,6.5-1.2c6.4-0.9,12.8-1.5,19.2-1.6
			c18.3-0.5,44.3-2.3,59,10.9c4,3.5,7.6,7.4,10.8,11.6c7.8,10.6,11.6,23.9,5,36.1c-6.9,12.9-19.7,18.2-31.3,25.7
			c0,0-85.6,55-165.9,34.9C805.4,668.7,791.2,662.6,779,653.7z"/>
		<path class="st0" d="M780.4,888.5c-1.3-2.9-15-110.1,15.1-238.8c-7.6-8.6-13.2-18.7-16.5-29.7c0,0,37.2,17.8,50.2,19.6
			c0,0-16.7,11.9-25.2,11c0,0-25.9,208.9-14.2,259.2L780.4,888.5z"/>
		<path class="st15" d="M729.1,464.9c0,0,3,125.4,48.7,187.3"/>
		<path class="st15" d="M709.7,499.2c0,0,0,67.4,44.8,134.2"/>
		<path class="st15" d="M761.1,458.9c0,0-18.5,73.6,27.3,199.8"/>
		<path class="st15" d="M789.1,481.8c0,0-13.8,125.1,8.3,179.9"/>
		<path class="st15" d="M819.8,511.3c0,0-26.3,97-16.8,151.4"/>
		<path class="st15" d="M809.8,664.7c0,0,30.8-112.2,33.6-132"/>
		<path class="st15" d="M882.8,550.6c0,0-45.5,96.2-66.2,114.6"/>
		<path class="st15" d="M916.9,551.6c0,0-40.9,80.4-91.9,116.7"/>
		<path class="st15" d="M955.3,549.6c0,0-32.3,78.9-113,121.3"/>
		<path class="st15" d="M983.6,553.3c0,0-42.7,83.7-115.9,117"/>
		<path class="st15" d="M1006.1,568c0,0-29.3,64.5-84.1,92.1"/>
		<line class="st16" x1="771.5" y1="447.9" x2="807.3" y2="511.8"/>
		<line class="st16" x1="816.2" y1="506.4" x2="793.5" y2="442.9"/>
		<line class="st16" x1="815.7" y1="440.7" x2="835.2" y2="501.1"/>
		<line class="st16" x1="848.4" y1="501.1" x2="844" y2="463"/>
		<line class="st16" x1="859.6" y1="505.1" x2="867.9" y2="451.4"/>
		<line class="st16" x1="871.5" y1="507.3" x2="891.2" y2="453.4"/>
		<line class="st16" x1="885.7" y1="511.7" x2="911.1" y2="467.6"/>
		<line class="st16" x1="900.4" y1="521.1" x2="937.5" y2="471.7"/>
		<line class="st16" x1="912.1" y1="541.6" x2="968" y2="474.3"/>
		<line class="st16" x1="979.6" y1="496.6" x2="920.9" y2="554.8"/>
		<line class="st16" x1="988.6" y1="512.4" x2="945.4" y2="554.9"/>
		<line class="st16" x1="1001.9" y1="532.9" x2="972.3" y2="553.7"/>
		<path class="st17" d="M739.9,911c0,0,20.6-12.4,66.4-25.8c0,0,43.2-10.1,42.5-33c0,0-55.7-23.1-107.8,44.5c0,0,4.2-41.4,57.6-53.6
			c0,0,75.1-16.5,54.8-40.6c0,0,1.6,1.3-18.5,12.1c0,0-21.4,12.5-37.8,12.3c0,0-38.2,3.5-49.9,38.5c0,0-12.2-25.2,64.9-54.6
			c0,0,60.9-34,48.5-72.4c0,0-22.2,17.7-57.5,54.3c0,0-46.2,32.8-59.4,56.7c12.7-20.6,28.9-38.8,47.9-53.8c0,0,52.5-52.9,41.8-89.4
			c0,0-12.4,1.6-35.1,49.9c0,0-13,36.6-31.1,46.4c0,0,56.7-95,14.3-145.9c0,0-19.3-5.6-14.4,20.4c0,0,15.9,93.7-6.6,125.6
			c0,0,0.4-121.8-43.7-130.2c0,0-6.9-1.3,3.2,24.8c0,0,31.7,84,30.9,105.4c0,0-11.8,7.2-31-74c0,0-12.1-38.2-23.1-14.7
			c0,0-2.8,70.6,23.8,89.8c0,0-3.9,8.4-14.6,2.6l-4.3-3.5C679.9,769.9,690.7,680,690.7,680c3.6-26.3-15.4-19.7-15.4-19.7
			c-39.7,52.9,21.5,145.1,21.5,145.1c-18.5-8.9-33.3-44.8-33.3-44.8c-25-47.1-37.5-48.1-37.5-48.1c-8.9,36.9,46.2,87.2,46.2,87.2
			c19.7,14,36.8,31.4,50.4,51.4c-14.3-23.3-62.1-53.8-62.1-53.8c-37.1-34.5-60.1-51.1-60.1-51.1c-10.5,39,51.9,69.9,51.9,69.9
			c78.5,25.6,67.5,51.2,67.5,51.2c-13.5-34.3-51.8-35.9-51.8-35.9c-16.3,0.9-38.3-10.5-38.3-10.5c-20.6-9.8-19.1-11.1-19.1-11.1
			c-19,25.1,56.7,37.8,56.7,37.8c53.9,9.5,60.2,50.7,60.2,50.7c-55.3-65.1-109.8-39.2-109.8-39.2c0.4,22.9,44.1,30.9,44.1,30.9
			c46.4,11.2,67.6,22.5,67.6,22.5"/>
		<path class="st4" d="M113.2,552.9c0,0,75.7-242.6,101.6-275c2-2.5,23.4-2.3,27-3c16.2-3.1,33.7-8.4,46.2-19.9
			c4.1-3.8,13.2-13,7.9-16.6c-2.7-1.7-11.2,0.2-14.1,0.5c-20.2,2.6-39.4,11.7-56.3,22.7c-2.5,1.6-4.9,3.3-7.3,5
			c2.1-1.5,3.9-7.4,5.2-9.6c4.3-7.5,9.3-14.7,14.8-21.4c10.2-12.2,23.9-24,40.8-22.5c9.1,0.8,16.8,6.3,25.6,8.4
			c8.8,2.1,18,2.3,26.9,0.4c2.5-0.5,19.8-5.4,17.3-8.7c-12.4-16.2-42-14.6-59.4-12.9c0,0-45.6-1.8,17.4-9.6
			c11.2-1.4,22.6-0.4,33.8-2c5.4-0.8,31.9-8,28.2-18c-1.7-4.6-21.6-3.5-25.2-3.3c-14.2,0.3-28,4.5-40,12
			c17.3-11.2,37.5-18.3,54.6-30.9c12.1-8.9,41.3-32.3,38.2-50.6c-2.6-15.1-47.6,15.1-53.7,20.1c-17.6,14.2-32.1,31.9-44.7,50.3
			c9.7-14.2,22-45.2,16.4-62.5c-5-15.4-11.6-1.3-15.8,6.7c-8.6,16.4-14.1,34.3-16.1,52.7c0,0-12.1,30.4-27.5,35.9
			c0,0,30.6-83.3,0.7-78.2c0,0-18.5,16.8-12.6,81.1c0,0-73.7,116.1-138.6,344.7L113.2,552.9z"/>
		<path class="st3" d="M137.6,338.9c2.4,2.8,19.3,15.9,19.4,19.1c0.1,24.5-31.3,117.1-57.2,188.9c3.5,1,6.9,2.1,10.5,3.1
			c59.9-167,70.2-267.5,70.2-267.5c44.4-46.9,40.3-71.4,40.3-71.4c-20.5-22.6-47.9,61.8-47.9,61.8c-8.6-13.8,0.6-45.2,0.6-45.2
			c9.8-15.7,16.5-33.1,19.9-51.3c1.7-8.9,5.2-24.1-8.2-15.1c-15.1,10.1-24.7,42-25.8,59.2c1.5-22.3,1-45.1-3.8-67
			c-1.7-7.6-18.3-59.3-29.7-49c-13.8,12.3-5.2,48.8-1.2,63.3c5.6,20.4,17,38.5,23.7,58c-4.8-13.4-13.1-25.2-24.1-34.2
			c-2.8-2.4-17.7-15.6-21.9-13.1c-9.1,5.6,7.2,27.6,11,31.5c7.8,8.2,17.4,14.4,25.2,22.5c44.6,45.1,7.7,18.3,7.7,18.3
			c-12.6-12.1-35-31.7-54.6-26.6c-4.1,1,6.6,15.6,8.2,17.5c5.8,7.1,13.2,12.7,21.5,16.6c8.3,3.9,17.6,4.2,25.2,9.2
			c14.3,9.3,17.7,27.1,18.2,43c0.2,8.7-0.3,17.4-1.6,26c-0.4,2.5-2.6,8.4-1.9,10.8c-0.8-2.8-1.7-5.6-2.6-8.4
			c-6.4-19.1-15.9-38.1-30.1-52.7c-2.1-2.1-7.6-8.9-10.8-9.2c-6.3-0.5-4.9,12.4-4,17.9C116.3,311.5,126.7,326.4,137.6,338.9z"/>
		<path class="st4" d="M283.2,13.8c0,0,54.8-23.9,68.7,28.9c0,0,67.8-16.6,63.4,41.8c0,0,45.9,18.9,28.2,52.2
			c0,0,60.6,35.5,1.4,73.5l-69.4,18l-53-3.9l-43.2-38.4L259.6,125L283.2,13.8z"/>
		<path class="st18" d="M373.2,172.2c0,0,23.5,15.1,37.4,1"/>
		<line class="st18" x1="367.9" y1="152.4" x2="392.5" y2="141.3"/>
		<path class="st18" d="M387.9,122.6c0,0-30,23.5-45.7,17.3"/>
		<line class="st18" x1="370.4" y1="117" x2="347.7" y2="132.6"/>
		<line class="st18" x1="354.3" y1="111.9" x2="345.9" y2="124.5"/>
		<path class="st18" d="M313.2,90.2c0,0-12.1,19.8-6.3,29.4"/>
		<line class="st18" x1="328.9" y1="103.8" x2="325.4" y2="114.7"/>
		<path class="st18" d="M336.7,118.2c0,0,4-17.8,19.5-25.8"/>
		<circle class="st12" cx="414.5" cy="170.2" r="5"/>
		<circle class="st12" cx="396.9" cy="140.7" r="5"/>
		<circle class="st12" cx="390.1" cy="119.2" r="5"/>
		<circle class="st12" cx="373.1" cy="113.8" r="5"/>
		<circle class="st12" cx="358.2" cy="109.1" r="5"/>
		<circle class="st12" cx="360.8" cy="91.6" r="5"/>
		<circle class="st12" cx="318.6" cy="91.2" r="5"/>
		<circle class="st12" cx="330.1" cy="100.1" r="5"/>
		<path class="st7" d="M252.6,193c-13.3-13.8-23.4-29.9-27.5-47.6c-6.8-29.5-3.5-60.9,2.5-90.3c0,0,9.9-57,55.6-41.3
			c0,0,21.9,16.4,6.3,43.3c0,0,30.8,18-10.6,104c0,0,24.2-72.5,67-36.5c0,0,6.2,10.2-3.7,15.4c0,0,36,5.5,31,32.3
			c0,0-16.6,33.6-50.3,39.5c0,0,20.3,2.9,39.6-16.9c0,0,28.9-16.8,26.4,6c0,0,50.6-18.1,56,9.5c1.7,8.5-20.1,24.2-25.5,27.4
			c-29.3,17.7-64.8,10.8-95.3,0.3C299.6,229.6,272.5,213.8,252.6,193z"/>
		<path class="st5" d="M122.3,498.1c10.5-9.3,18.4-31,21.4-44.1c2.3-9.7,2.9-21-4.5-28.6c-14.4-14.9-37.1,2.3-45.2,15.7
			c-10.1,16.8-10.7,38-8.8,56.9c-0.5-4.9-26.2-10.1-29.6-10.7c-14.4-2.3-51.7-1.6-45.9,20.4c6.8,25.5,38.4,24.8,59.1,21
			c0,0-53.6,57.9-15.3,72.1c0,0,27.3,14.2,55.7-50.3c0,0,51.4,43.7,64.5,10.9c0,0,3.3-35-39.3-38.2c0,0,67.8,4.4,49.2-36.1
			C183.5,487.2,159.5,465.3,122.3,498.1z"/>
		<path class="st4" d="M108.1,504.4c0,0,23.1-25.9,0-29.4c0,0-19.8,3.3-10.5,29.4c0,0-25.6-9.8-36.5,0c0,0-6.1,14.2,28.6,12
			c0,0-26.5,26.2-12.3,35c0,0,22.7,5.6,20.2-27.3c0,0,17,27.3,26.8,13.1c0,0,14.1-10.6-16.4-23.9c0,0,30.7,18.9,28.4-2.8
			C136.5,510.6,133.3,496.8,108.1,504.4z"/>
		<path class="st9" d="M97.7,515c0,0-15.8-21-7-43.9"/>
		<path class="st9" d="M58.7,501.1c0,0,23.1-5.1,38.5,12.6"/>
		<path class="st9" d="M58.8,517.1c0,0,14.2-14.2,38.2-3.3"/>
		<path class="st4" d="M169.3,363.5c0.8-1.5-15.6-14.5-17.3-15.8c-6.8-5.6-14.2-10.6-22-14.7c-7.4-4.1-15.5-6.7-23.9-7.7
			c-8.9-0.8-19.1-1.4-21.4,9.3c-1.1,5.1-0.4,10.5-0.7,15.6c-0.9,20.7,1.6,42.6,13.1,60.2l29.5,2.1c0,0,0.1-25,10-30.5
			c0,0,19.3,6.1,28.1,19.2C164.7,401.4,162.8,376.6,169.3,363.5z"/>
		<path class="st7" d="M196.6,394.7c0,0,4.4-78.7-27.3-81.9c0,0-9.8,18.6-6.6,33.9c0,0-13.1-14.2-29.4-16.4c0,0-12,15.3-6.6,31.7
			l-29.6-2.3c0,0-1.1,40.4,83.1,44.8c0,0,160.7,144.3,112.6,584.7l17.5-33.9C310.4,955.3,359.5,651.5,196.6,394.7z"/>
		<path class="st0" d="M343.1,482.6c0,0,48.1,130.1-49.2,182.5C293.9,665.1,268.8,541.6,343.1,482.6z"/>
		<path class="st5" d="M109.2,511.6c0,0,0.1,0.1,0.1,0.1l0.4,0.4l0.7,0.6l0.9,0.9l1.1,1.1l1.4,1.4l1.6,1.6c0.6,0.6,1.2,1.2,1.8,1.9
			l2.1,2.1l2.1,2.4l2.4,2.6c0.9,0.9,1.7,1.9,2.6,2.9l2.8,3.1l2.9,3.4l3,3.6c1.1,1.3,2.1,2.6,3.2,3.9l3.3,4.1
			c1.2,1.4,2.3,2.9,3.5,4.3l3.6,4.6l3.7,4.9c1.3,1.7,2.5,3.4,3.8,5.1c1.2,1.7,2.6,3.5,3.9,5.3c1.3,1.8,2.6,3.7,3.9,5.6l4,5.8
			l4.2,6.1c1.4,2.1,2.8,4.2,4.2,6.3s2.8,4.3,4.2,6.6s2.8,4.5,4.2,6.8s2.9,4.7,4.2,7c1.3,2.4,2.9,4.9,4.2,7.3c1.3,2.4,2.9,5,4.2,7.5
			c1.3,2.5,2.9,5.2,4.2,7.8s2.9,5.3,4.2,8c1.3,2.7,2.9,5.5,4.2,8.3s2.9,5.6,4.2,8.4c1.3,2.8,2.8,5.8,4.2,8.7c1.4,2.9,2.8,6,4.2,9
			c1.4,3,2.8,6.1,4.2,9.2c1.4,3.1,2.8,6.3,4.2,9.5c1.4,3.2,2.7,6.4,4,9.7c1.3,3.2,2.7,6.6,4,9.9c1.3,3.3,2.6,6.8,3.9,10.2
			c1.3,3.4,2.5,6.9,3.8,10.4c1.2,3.5,2.5,7.1,3.7,10.6s2.4,7.2,3.6,10.9s2.3,7.4,3.5,11.1s2.2,7.6,3.3,11.3
			c1.1,3.8,2.1,7.7,3.2,11.6s2.1,7.9,3,11.8c0.9,3.9,2,8,2.9,12.1s1.9,8.2,2.8,12.3s1.7,8.4,2.6,12.6s1.6,8.5,2.4,12.8
			c0.8,4.3,1.5,8.7,2.2,13c0.7,4.3,1.4,8.8,2,13.3c0.6,4.4,1.2,9,1.8,13.5c0.6,4.5,1.1,9.1,1.6,13.7c0.5,4.6,0.9,9.3,1.4,13.9
			c0.4,4.6,0.8,9.5,1.1,14.2c0.3,4.7,0.7,9.6,0.9,14.4s0.5,9.7,0.7,14.7c0.1,3.3,0.2,6.6,0.3,9.9c-1.2,0-2.5,0.1-3.7,0.3v-1.3
			c0-1.4-0.2-2.8-0.3-4.2c-0.2-2.8-0.4-5.6-0.6-8.4s-0.5-5.8-0.7-8.7c-0.3-2.9-0.5-6-0.8-9c-0.3-3-0.6-6.2-1-9.2s-0.7-6.3-1.1-9.5
			c-0.4-3.2-0.8-6.5-1.3-9.7c-0.4-3.2-0.9-6.6-1.4-9.9s-1-6.7-1.6-10.1s-1.1-6.9-1.7-10.3c-0.6-3.4-1.2-7-1.9-10.5
			s-1.4-7.1-2.1-10.7c-0.7-3.6-1.5-7.3-2.3-10.9s-1.6-7.4-2.5-11.1s-1.7-7.5-2.7-11.2s-1.9-7.6-2.9-11.4c-1-3.8-2.1-7.7-3-11.5
			c-0.9-3.8-2.1-7.8-3.3-11.7c-1.2-3.9-2.3-7.9-3.5-11.8s-2.5-8-3.7-11.9c-1.3-4-2.6-8-4-12s-2.8-8.1-4.2-12.1
			c-1.4-4-2.9-8.2-4.5-12.2c-1.5-4.1-3.1-8.2-4.7-12.3c-1.6-4.1-3.3-8.3-5-12.4c-1.7-4.1-3.5-8.4-5.3-12.5
			c-1.8-4.1-3.6-8.4-5.5-12.6c-1.9-4.2-3.8-8.4-5.8-12.6c-2-4.2-4-8.4-6.1-12.6c-2.1-4.2-4.2-8.4-6.3-12.6s-4.4-8.4-6.7-12.6
			c-2.3-4.2-4.6-8.4-7-12.7c-2.4-4.3-4.9-8.4-7.3-12.7c-2.5-4.3-5.1-8.4-7.6-12.7s-5.3-8.4-8-12.6c-2.7-4.2-5.5-8.5-8.4-12.7
			s-5.7-8.4-8.6-12.6c-2.9-4.2-6-8.4-9-12.6s-6.3-8.4-9.3-12.6s-6.4-8.4-9.7-12.6c-2.8-3.6-5.7-7.2-8.7-10.8
			C102.5,508.8,106.7,511.6,109.2,511.6z"/>
		<path class="st0" d="M289.8,664.5c0,0-60-52.5-128.9-44.8C161,619.7,204.4,697.3,289.8,664.5z"/>
		<path class="st5" d="M690.4,953.7c0,0,24.9-14.9,80.2-31.1c0,0,52.2-12.2,51.2-39.9c0,0-67.2-27.9-130.1,53.7
			c0,0,5.1-49.9,69.5-64.7c0,0,90.6-19.9,66.2-49c0,0,2,1.5-22.3,14.6c0,0-25.8,15-45.5,14.9c0,0-46.1,4.2-60.3,46.4
			c0,0-14.7-30.3,78.3-65.8c0,0,73.5-41,58.5-87.4c0,0-26.8,21.4-69.4,65.5c0,0-55.8,39.6-71.7,68.5c15.3-24.9,34.9-46.8,57.8-64.9
			c0,0,63.3-63.9,50.4-107.9c0,0-15,2-42.3,60.2c0,0-15.7,44.1-37.5,56c0,0,68.4-114.7,17.3-176.1c0,0-23.3-6.8-17.4,24.7
			c0,0,19.3,113.1-8,151.6c0,0,0.5-147-52.8-157.1c0,0-8.3-1.6,3.9,30c0,0,38.2,101.4,37.3,127.2c0,0-14.3,8.7-37.4-89.3
			c0,0-14.6-46-28-17.7c0,0-3.4,85.2,28.7,108.4c0,0-4.7,10-17.6,3.2l-5.3-4.2C618,783.9,631,675.3,631,675.3
			c4.3-31.7-18.6-23.8-18.6-23.8c-48,63.9,25.9,175.1,25.9,175.1c-22.3-10.7-40.2-54.1-40.2-54.1C568,715.6,553,714.4,553,714.4
			c-10.8,44.6,55.6,105.3,55.6,105.3c23.8,16.9,44.4,37.9,60.9,62c-17.3-28.1-75-64.9-75-64.9c-44.8-42-72.5-62-72.5-62
			c-12.7,47.1,62.7,84.4,62.7,84.4c94.7,30.9,81.5,61.9,81.5,61.9c-16.3-41.4-62.5-43.4-62.5-43.4c-19.7,1.1-46.2-12.6-46.2-12.6
			c-24.9-11.8-23-13.4-23-13.4c-22.9,30.2,68.5,45.7,68.5,45.7c65.1,11.5,72.6,61.1,72.6,61.1c-66.7-78.6-132.5-47.3-132.5-47.3
			c0.4,27.7,53.1,37.3,53.1,37.3c56,13.4,81.6,27.1,81.6,27.1"/>
		<rect x="194.1" y="28.4" class="st19" width="1066.1" height="884"/>
	</g>
</g>
</svg>
