<?xml version="1.0" encoding="utf-8"?>
<!-- Generator: Adobe Illustrator 23.0.6, SVG Export Plug-In . SVG Version: 6.00 Build 0)  -->
<svg version="1.1" id="Layer_1" xmlns="http://www.w3.org/2000/svg" xmlns:xlink="http://www.w3.org/1999/xlink" x="0px" y="0px"
	 viewBox="0 0 251.2 77" style="enable-background:new 0 0 251.2 77;" xml:space="preserve">
<g transform="translate(-827 -375)">
	<path d="M1030.3,423.7v-12.2h-1.1c-1.4-0.1-2.7,0.9-2.9,2.4c0,0.2,0,0.4,0,0.5V428c0,1.7,0.9,3.4,2.9,3.4h1c-0.7,1-1.7,1.9-2.8,2.4
		v0.8c3.4-0.1,6.8-0.6,9.8-3.2h14.4c2,0,3.9-1.7,3.9-3.4v-0.6h-21.8c-1.8,0-3.3-1.4-3.4-3.3C1030.3,424,1030.3,423.9,1030.3,423.7z"
		/>
	<path d="M1067,422.2v-15.3c0-1.9-2.6-3.9-4.8-3.9h-25.3c-2.2,0-4,1.7-4.3,3.9v15.3c0,1.9,2.1,3.3,4.3,3.3h18.5l1,0
		c3,2.6,6.4,3.1,9.8,3.2v-0.8c-1.2-0.6-2.2-1.4-2.9-2.5C1065.2,425,1067,423.8,1067,422.2z M1056.9,410.3l-2.2,6.5
		c-0.1,0.2-0.1,0.2-0.4,0.2h-8.6l0.3,1.4l0.4,0c0.4,0,0.8,0.2,1,0.6l0.1,0.2h5.8l0.1-0.2c0.3-0.3,0.7-0.5,1.1-0.5
		c0.8,0,1.5,0.6,1.5,1.4c0,0.1,0,0.1,0,0.2c0,0.9-0.7,1.6-1.5,1.6c-0.7,0-1.3-0.5-1.5-1.2l-0.1-0.4h-5.1l-0.1,0.4
		c-0.2,0.7-0.8,1.1-1.5,1.2c-0.9-0.1-1.6-0.9-1.5-1.8c0-0.4,0.2-0.7,0.4-1l0.2-0.2l-2.4-10h-3.3v-0.8h3.5c0.1,0,0.3,0,0.4,0.3
		l0.4,1.9h12.6c0.1,0,0.3,0,0.4,0.1C1056.9,410.1,1057,410.1,1056.9,410.3z"/>
	<path d="M956.5,427.1c0.1,1.3-0.1,2.5-0.6,3.7c-1.1,1.8-3,2.4-5.4,1.9c-1.7-0.3-2.7-1.6-2.9-3.8l-0.1-17.6h-9.8c0,6-0.3,15,0.5,21
		c0.8,6.1,4,8.5,9,9c0.7,0.1,1.4,0.1,2.1,0c4.8-0.5,9.7-0.7,14.6-0.7c1.8,0,2,0,2,0l0-29.4h-9.4
		C956.4,415.7,956.5,422.8,956.5,427.1z"/>
	<path d="M995.7,425.6c0-2.1-0.2-4.3-0.7-6.3c-0.7-3.1-2.3-5.7-5.3-7.1c-4.6-1.9-9.7-1.9-14.3-0.2l2.4,6.1c0.8-0.2,1.6-0.4,2.4-0.5
		c0.8-0.1,1.6-0.1,2.4,0c2.2,0.2,4,1.8,4.3,4c-1.2,0.1-2.2,0.1-3.2,0.2c-3.9,0.4-7.9,0.5-11.5,2.5c-4.4,2.3-6.1,7.8-3.8,12.1
		c0.1,0.1,0.1,0.3,0.2,0.4c2,3.3,5.2,4.5,8.7,4.6c5.5,0.1,10.9-0.9,16.4-0.6c0.6,0.1,1.3,0.1,1.9,0
		C995.7,436.5,995.6,430,995.7,425.6z M986.9,430c-0.3,2.7-2.8,4.6-6.2,4.7c-2.6,0-3.8-0.7-4-2.4c-0.2-1.8,1-3.1,3.4-3.6
		c1.7-0.4,3.4-0.6,5.1-0.7C986.7,428.1,987.1,428.8,986.9,430L986.9,430z"/>
	<path d="M864.9,429.4l21-0.3c0.5-4.2-0.4-8.5-2.6-12.2c-1.4-2.4-3.6-4.2-6.2-5.1c-5.6-2-11.8-0.8-16.2,3.2
		c-4.6,4.1-5.9,9.5-4.3,15.5c1.6,5.9,7.8,10.9,13.9,10.9l1.6,0l-0.2-7C869.1,434.3,865.6,432.7,864.9,429.4z M871.4,417.7
		c2.6,0.1,4.4,1.9,4.9,4.9h-11C866.2,419.3,868.5,417.6,871.4,417.7L871.4,417.7z"/>
	<path d="M916.3,416.4l-5.6-6l-9.9,9.9l-9.5-9.4c0,0-4.4,3.9-5.8,5.3l9.6,9.8c0,0-0.8,0.9-1.2,1.3c-2.4,2.4-5.9,5.9-8.4,8.3l5.6,6
		c2.4-2.4,7.2-7.2,9.8-9.8l10.5,9.9l5.3-5.6l-10.2-9.7L916.3,416.4z"/>
	<path d="M847.5,411.5c0-1.6-0.1-6.9-0.1-8.5h-9.3l0,30.9c-0.1,2.3,1.1,4.4,3.1,5.6c4,2.5,9.5,2.3,13.9,1.2v-7.5
		c-1.5,0.1-3.1,0.3-4.5,0.2c-2.1-0.1-3.1-1-3.2-2.9c-0.1-3.3-0.1-8.1-0.1-11.4l7.8-0.2c0-2.2,0-5.4,0-7.4L847.5,411.5z"/>
	<path d="M997.4,403.5v37.9h9.4v-37.9L997.4,403.5z"/>
	<path d="M927.6,411.5c0-1.6-0.1-6.9-0.1-8.5h-9.3l0,30.9c-0.1,2.3,1.1,4.4,3.1,5.6c4,2.5,9.5,2.3,13.9,1.2v-7.5
		c-1.5,0.1-3.1,0.3-4.5,0.2c-2.1-0.1-3.1-1-3.2-2.9c-0.1-3.3-0.1-8.1-0.1-11.4l7.8-0.2c0-2.2,0-5.4,0-7.4L927.6,411.5z"/>
</g>
<g>
	<path d="M82.5,16.4v4.8h-1.7V8.4h3.8c0.8,0,1.5,0.1,2.1,0.3c0.6,0.2,1.1,0.5,1.5,0.8c0.4,0.3,0.7,0.8,0.9,1.3
		c0.2,0.5,0.3,1,0.3,1.6c0,0.6-0.1,1.1-0.3,1.6s-0.5,0.9-0.9,1.3c-0.4,0.4-0.9,0.6-1.5,0.8c-0.6,0.2-1.3,0.3-2.1,0.3H82.5z
		 M82.5,15.1h2.1c0.5,0,0.9-0.1,1.3-0.2c0.4-0.1,0.7-0.3,1-0.6c0.3-0.2,0.5-0.5,0.6-0.9c0.1-0.3,0.2-0.7,0.2-1.1
		c0-0.8-0.3-1.5-0.8-1.9c-0.5-0.5-1.3-0.7-2.3-0.7h-2.1V15.1z"/>
	<path d="M94.7,12c0.7,0,1.3,0.1,1.8,0.3c0.5,0.2,1,0.5,1.4,0.9s0.7,0.9,0.9,1.5c0.2,0.6,0.3,1.2,0.3,1.9c0,0.7-0.1,1.4-0.3,1.9
		c-0.2,0.6-0.5,1.1-0.9,1.5c-0.4,0.4-0.8,0.7-1.4,0.9c-0.5,0.2-1.1,0.3-1.8,0.3s-1.3-0.1-1.8-0.3c-0.5-0.2-1-0.5-1.4-0.9
		c-0.4-0.4-0.7-0.9-0.9-1.5c-0.2-0.6-0.3-1.2-0.3-1.9c0-0.7,0.1-1.4,0.3-1.9c0.2-0.6,0.5-1.1,0.9-1.5s0.8-0.7,1.4-0.9
		C93.5,12.1,94.1,12,94.7,12z M94.7,20.1c0.9,0,1.6-0.3,2-0.9c0.4-0.6,0.7-1.4,0.7-2.5c0-1.1-0.2-1.9-0.7-2.5
		c-0.4-0.6-1.1-0.9-2-0.9c-0.5,0-0.9,0.1-1.2,0.2c-0.3,0.2-0.6,0.4-0.8,0.7s-0.4,0.7-0.5,1.1c-0.1,0.4-0.2,0.9-0.2,1.5
		s0.1,1,0.2,1.4c0.1,0.4,0.3,0.8,0.5,1.1s0.5,0.5,0.8,0.7C93.9,20.1,94.3,20.1,94.7,20.1z"/>
	<path d="M99.9,12.1h1.3c0.1,0,0.2,0,0.3,0.1s0.1,0.1,0.2,0.2l1.7,5.9c0,0.2,0.1,0.4,0.1,0.6c0,0.2,0.1,0.4,0.1,0.6
		c0-0.2,0.1-0.4,0.2-0.6c0.1-0.2,0.1-0.4,0.2-0.6l1.9-5.9c0-0.1,0.1-0.2,0.2-0.2c0.1-0.1,0.2-0.1,0.3-0.1h0.7c0.1,0,0.2,0,0.3,0.1
		c0.1,0.1,0.1,0.1,0.2,0.2l1.9,5.9c0.1,0.2,0.1,0.4,0.2,0.6s0.1,0.4,0.1,0.6c0-0.2,0.1-0.4,0.1-0.6c0-0.2,0.1-0.4,0.2-0.6l1.8-5.9
		c0-0.1,0.1-0.2,0.2-0.2s0.2-0.1,0.3-0.1h1.2l-3,9.1h-1.3c-0.2,0-0.3-0.1-0.3-0.3l-2-6.2c0-0.1-0.1-0.3-0.1-0.4
		c0-0.1-0.1-0.3-0.1-0.4c0,0.1-0.1,0.3-0.1,0.4c0,0.1-0.1,0.3-0.1,0.4l-2,6.2c-0.1,0.2-0.2,0.3-0.4,0.3h-1.2L99.9,12.1z"/>
	<path d="M118.4,12c0.5,0,1.1,0.1,1.5,0.3s0.9,0.4,1.2,0.8c0.3,0.3,0.6,0.8,0.8,1.3c0.2,0.5,0.3,1.1,0.3,1.7c0,0.3,0,0.4-0.1,0.5
		c-0.1,0.1-0.2,0.1-0.3,0.1h-6.1c0,0.6,0.1,1.1,0.2,1.5c0.1,0.4,0.3,0.8,0.6,1.1s0.6,0.5,0.9,0.6c0.3,0.1,0.7,0.2,1.2,0.2
		c0.4,0,0.7,0,1-0.1c0.3-0.1,0.5-0.2,0.8-0.3c0.2-0.1,0.4-0.2,0.5-0.3c0.1-0.1,0.3-0.1,0.4-0.1c0.1,0,0.2,0.1,0.3,0.2l0.4,0.6
		c-0.2,0.2-0.4,0.4-0.7,0.6c-0.3,0.2-0.6,0.3-0.9,0.4c-0.3,0.1-0.6,0.2-1,0.3c-0.3,0.1-0.7,0.1-1,0.1c-0.6,0-1.2-0.1-1.7-0.3
		c-0.5-0.2-1-0.5-1.4-0.9s-0.7-0.9-0.9-1.5c-0.2-0.6-0.3-1.3-0.3-2.1c0-0.6,0.1-1.2,0.3-1.8c0.2-0.6,0.5-1,0.8-1.4
		c0.4-0.4,0.8-0.7,1.3-1C117.2,12.1,117.8,12,118.4,12z M118.5,13.2c-0.8,0-1.4,0.2-1.8,0.7c-0.4,0.4-0.7,1.1-0.8,1.9h5
		c0-0.4-0.1-0.7-0.2-1c-0.1-0.3-0.3-0.6-0.4-0.8c-0.2-0.2-0.4-0.4-0.7-0.5C119.2,13.2,118.8,13.2,118.5,13.2z"/>
	<path d="M124.3,21.3v-9.1h0.9c0.2,0,0.3,0,0.4,0.1c0.1,0.1,0.1,0.2,0.1,0.3l0.1,1.4c0.3-0.6,0.7-1.1,1.2-1.5c0.5-0.4,1-0.5,1.6-0.5
		c0.3,0,0.5,0,0.7,0.1c0.2,0.1,0.4,0.1,0.6,0.2l-0.2,1.2c0,0.1-0.1,0.2-0.3,0.2c-0.1,0-0.2,0-0.4-0.1c-0.2-0.1-0.4-0.1-0.7-0.1
		c-0.6,0-1,0.2-1.4,0.5c-0.4,0.3-0.7,0.8-0.9,1.4v5.8H124.3z"/>
	<path d="M135.1,12c0.5,0,1,0.1,1.5,0.3s0.9,0.4,1.2,0.8c0.3,0.3,0.6,0.8,0.8,1.3c0.2,0.5,0.3,1.1,0.3,1.7c0,0.3,0,0.4-0.1,0.5
		c-0.1,0.1-0.2,0.1-0.3,0.1h-6.1c0,0.6,0.1,1.1,0.2,1.5c0.1,0.4,0.3,0.8,0.6,1.1s0.6,0.5,0.9,0.6c0.3,0.1,0.7,0.2,1.2,0.2
		c0.4,0,0.7,0,1-0.1c0.3-0.1,0.5-0.2,0.8-0.3c0.2-0.1,0.4-0.2,0.5-0.3c0.1-0.1,0.3-0.1,0.4-0.1c0.1,0,0.2,0.1,0.3,0.2l0.5,0.6
		c-0.2,0.2-0.4,0.4-0.7,0.6c-0.3,0.2-0.6,0.3-0.9,0.4c-0.3,0.1-0.6,0.2-1,0.3s-0.7,0.1-1,0.1c-0.6,0-1.2-0.1-1.7-0.3s-1-0.5-1.4-0.9
		s-0.7-0.9-0.9-1.5s-0.3-1.3-0.3-2.1c0-0.6,0.1-1.2,0.3-1.8c0.2-0.6,0.5-1,0.8-1.4c0.4-0.4,0.8-0.7,1.3-1
		C133.9,12.1,134.5,12,135.1,12z M135.2,13.2c-0.8,0-1.4,0.2-1.8,0.7c-0.4,0.4-0.7,1.1-0.8,1.9h5c0-0.4-0.1-0.7-0.2-1
		c-0.1-0.3-0.3-0.6-0.5-0.8s-0.4-0.4-0.7-0.5S135.5,13.2,135.2,13.2z"/>
	<path d="M147.4,21.3c-0.2,0-0.4-0.1-0.4-0.3l-0.1-1.1c-0.4,0.5-0.8,0.9-1.3,1.1c-0.5,0.3-1.1,0.4-1.7,0.4c-0.5,0-1-0.1-1.4-0.3
		c-0.4-0.2-0.8-0.5-1.1-0.9s-0.5-0.9-0.7-1.5s-0.2-1.3-0.2-2c0-0.7,0.1-1.3,0.3-1.9s0.4-1.1,0.8-1.5c0.3-0.4,0.8-0.8,1.2-1
		c0.5-0.2,1-0.4,1.7-0.4c0.6,0,1,0.1,1.4,0.3c0.4,0.2,0.7,0.5,1.1,0.8V8h1.6v13.3H147.4z M144.3,20.1c0.5,0,1-0.1,1.4-0.4
		c0.4-0.2,0.8-0.6,1.1-1v-4.4c-0.3-0.4-0.6-0.7-1-0.8c-0.4-0.2-0.7-0.2-1.2-0.2c-0.9,0-1.5,0.3-2,0.9c-0.5,0.6-0.7,1.5-0.7,2.6
		c0,0.6,0.1,1.1,0.2,1.5c0.1,0.4,0.3,0.8,0.5,1s0.4,0.5,0.7,0.6S143.9,20.1,144.3,20.1z"/>
	<path d="M154.5,21.3V8h1.6v5.5c0.4-0.4,0.8-0.8,1.3-1.1s1-0.4,1.7-0.4c0.5,0,1,0.1,1.4,0.3c0.4,0.2,0.8,0.5,1.1,0.9
		c0.3,0.4,0.5,0.9,0.7,1.5c0.2,0.6,0.2,1.2,0.2,2c0,0.7-0.1,1.3-0.3,1.9c-0.2,0.6-0.4,1.1-0.8,1.5c-0.3,0.4-0.8,0.8-1.2,1
		c-0.5,0.2-1,0.4-1.7,0.4c-0.6,0-1.1-0.1-1.5-0.3c-0.4-0.2-0.8-0.5-1.1-1l-0.1,0.8c0,0.2-0.2,0.3-0.4,0.3H154.5z M158.6,13.3
		c-0.5,0-1,0.1-1.4,0.4c-0.4,0.2-0.8,0.6-1.1,1v4.4c0.3,0.4,0.6,0.7,1,0.8s0.7,0.2,1.2,0.2c0.9,0,1.5-0.3,2-0.9s0.7-1.5,0.7-2.6
		c0-0.6-0.1-1.1-0.2-1.5c-0.1-0.4-0.3-0.8-0.5-1c-0.2-0.3-0.4-0.5-0.7-0.6S159,13.3,158.6,13.3z"/>
	<path d="M167,24c-0.1,0.1-0.1,0.2-0.2,0.3s-0.2,0.1-0.4,0.1h-1.2l1.7-3.6l-3.8-8.6h1.4c0.1,0,0.2,0,0.3,0.1
		c0.1,0.1,0.1,0.1,0.2,0.2l2.4,5.7c0.1,0.1,0.1,0.3,0.1,0.4c0,0.1,0.1,0.3,0.1,0.4c0-0.1,0.1-0.3,0.1-0.4c0-0.1,0.1-0.3,0.1-0.4
		l2.4-5.7c0-0.1,0.1-0.2,0.2-0.2s0.2-0.1,0.3-0.1h1.3L167,24z"/>
</g>
</svg>
